<?xml version="1.0" encoding="UTF-8" standalone="no"?>
<svg
   enable-background="new 0 0 91 91"
   height="89"
   id="Layer_1"
   version="1.1"
   viewBox="0 0 108 89"
   width="108"
   xml:space="preserve"
   sodipodi:docname="folder_open.svg"
   inkscape:version="1.3.2 (091e20e, 2023-11-25)"
   xmlns:inkscape="http://www.inkscape.org/namespaces/inkscape"
   xmlns:sodipodi="http://sodipodi.sourceforge.net/DTD/sodipodi-0.dtd"
   xmlns="http://www.w3.org/2000/svg"
   xmlns:svg="http://www.w3.org/2000/svg"
   xmlns:rdf="http://www.w3.org/1999/02/22-rdf-syntax-ns#"
   xmlns:cc="http://creativecommons.org/ns#"
   xmlns:dc="http://purl.org/dc/elements/1.1/"><metadata
     id="metadata3703"><rdf:RDF><cc:Work
         rdf:about=""><dc:format>image/svg+xml</dc:format><dc:type
           rdf:resource="http://purl.org/dc/dcmitype/StillImage" /><dc:title /></cc:Work></rdf:RDF></metadata><defs
     id="defs3701" /><sodipodi:namedview
     pagecolor="#ffffff"
     bordercolor="#666666"
     borderopacity="1"
     objecttolerance="10"
     gridtolerance="10"
     guidetolerance="10"
     inkscape:pageopacity="0"
     inkscape:pageshadow="2"
     inkscape:window-width="1392"
     inkscape:window-height="923"
     id="namedview3699"
     showgrid="false"
     inkscape:zoom="3.8814172"
     inkscape:cx="41.222056"
     inkscape:cy="49.981743"
     inkscape:window-x="1554"
     inkscape:window-y="982"
     inkscape:window-maximized="0"
     inkscape:current-layer="Layer_1"
     fit-margin-top="0"
     fit-margin-left="0"
     fit-margin-right="-0.1"
     fit-margin-bottom="0"
     inkscape:showpageshadow="2"
     inkscape:pagecheckerboard="0"
     inkscape:deskcolor="#d1d1d1" /><polygon
     style="fill:#ffeeaa"
     id="polygon3680"
     points="88.271,12.531 47.558,12.531 40.339,3.273 3.048,3.273 3.048,30.289 88.271,30.289 "
     transform="matrix(1,0,0,1.5168751,5.2766449,-4.9485768)" /><path
     sodipodi:nodetypes="ssssssccsssscccscccc"
     style="fill:#454b53;stroke-width:0.994421"
     inkscape:connector-curvature="0"
     id="path3682"
     d="M 95.634493,42.065212 8.6163982,42.896479 C 7.228463,42.909738 6.9774069,41.996145 6.9618888,40.623674 L 6.5326435,2.6598172 c -0.015507,-1.3714824 1.125,-2.4840512 2.513,-2.4840512 H 46.336643 c 0.774001,0 1.505001,0.35203909 1.981001,0.956241 l 6.464,8.1967755 h 39.486999 c 1.388001,0 2.513001,1.1124835 2.513001,2.4860285 v 17.560423 c 0,1.372557 0.240785,12.676719 -1.147151,12.689978 z M 11.773266,40.260981 91.756643,41.747382 V 14.298863 H 53.555644 c -0.774,0 -1.505001,-0.352039 -1.981001,-0.956241 L 45.110644,5.1458461 H 11.558643 Z" /><path
     sodipodi:nodetypes="ccsscc"
     style="fill:#e6cba5;stroke-width:0.968476;fill-opacity:1"
     inkscape:connector-curvature="0"
     id="path3686"
     d="M 3.5030373,40.749116 8.8265743,86.22031 H 85.475877 c 4.815763,0 8.764588,-3.686308 8.764588,-8.184934 L 101.1521,43.669942 Z" /><path
     sodipodi:nodetypes="ssssssscscssccc"
     style="fill:#454b53;stroke-width:0.968476"
     inkscape:connector-curvature="0"
     id="path3688"
     d="M 82.432853,88.99911 8.8265743,88.573034 C 7.435492,88.564982 6.5116901,87.505871 6.3079454,86.22031 L -0.47273286,43.436497 C -0.67618419,42.152787 2.4800465,38.813692 3.8711086,38.813237 L 103.4304,38.780623 c 1.39107,-4.56e-4 3.98344,3.522193 3.58334,4.765285 L 95.149852,80.406092 c -2.852897,7.691587 -6.085967,8.631403 -12.716999,8.593018 z m -71.08765,-5.128716 72.761765,-0.284051 c 3.444668,-0.01345 4.418855,-0.511804 5.397221,-3.605392 L 100.91177,43.910275 5.4771312,43.658838 Z" /></svg>
