<?xml version="1.0" encoding="UTF-8" standalone="no"?>
<svg
   enable-background="new 0 0 91 91"
   height="89"
   id="Layer_1"
   version="1.1"
   viewBox="0 0 108 89"
   width="108"
   xml:space="preserve"
   sodipodi:docname="folder_closed.svg"
   inkscape:version="1.3.2 (091e20e, 2023-11-25)"
   xmlns:inkscape="http://www.inkscape.org/namespaces/inkscape"
   xmlns:sodipodi="http://sodipodi.sourceforge.net/DTD/sodipodi-0.dtd"
   xmlns="http://www.w3.org/2000/svg"
   xmlns:svg="http://www.w3.org/2000/svg"
   xmlns:rdf="http://www.w3.org/1999/02/22-rdf-syntax-ns#"
   xmlns:cc="http://creativecommons.org/ns#"
   xmlns:dc="http://purl.org/dc/elements/1.1/"><metadata
     id="metadata3749"><rdf:RDF><cc:Work
         rdf:about=""><dc:format>image/svg+xml</dc:format><dc:type
           rdf:resource="http://purl.org/dc/dcmitype/StillImage" /><dc:title /></cc:Work></rdf:RDF></metadata><defs
     id="defs3747" /><sodipodi:namedview
     pagecolor="#ffffff"
     bordercolor="#666666"
     borderopacity="1"
     objecttolerance="10"
     gridtolerance="10"
     guidetolerance="10"
     inkscape:pageopacity="0"
     inkscape:pageshadow="2"
     inkscape:window-width="1392"
     inkscape:window-height="844"
     id="namedview3745"
     showgrid="false"
     inkscape:zoom="3.9121462"
     inkscape:cx="50.86722"
     inkscape:cy="41.026074"
     inkscape:window-x="1558"
     inkscape:window-y="90"
     inkscape:window-maximized="0"
     inkscape:current-layer="g3738"
     inkscape:showpageshadow="2"
     inkscape:pagecheckerboard="0"
     inkscape:deskcolor="#d1d1d1" /><g
     id="g3738"
     transform="translate(6.2415254,-0.0720339)"><polygon
       points="88.271,12.531 47.558,12.531 40.339,3.273 3.048,3.273 3.048,30.289 88.271,30.289 "
       id="polygon3726"
       style="fill:#ffeeaa" /><path
       d="M 88.271,32.802 H 3.048 c -1.388,0 -2.513,-1.125 -2.513,-2.513 V 3.273 c 0,-1.387 1.125,-2.512 2.513,-2.512 h 37.291 c 0.774,0 1.505,0.356 1.981,0.967 l 6.464,8.289 h 39.487 c 1.388,0 2.513,1.125 2.513,2.514 v 17.758 c 0,1.388 -1.125,2.513 -2.513,2.513 z M 5.561,27.776 H 85.759 V 15.043 H 47.558 c -0.774,0 -1.505,-0.356 -1.981,-0.967 L 39.113,5.787 H 5.561 Z"
       id="path3728"
       inkscape:connector-curvature="0"
       style="fill:#454b53" /><path
       d="m 3.049,30.287 v 56.328 h 76.478 c 4.805,0 8.745,-3.939 8.745,-8.746 V 30.287 Z"
       id="path3732"
       inkscape:connector-curvature="0"
       style="fill:#e6cba5" /><path
       d="M 79.526,89.129 H 3.049 c -1.388,0 -2.513,-1.125 -2.513,-2.514 V 30.287 c 0,-1.387 1.125,-2.512 2.513,-2.512 h 85.223 c 1.388,0 2.513,1.125 2.513,2.512 v 47.582 c -10e-4,6.208 -5.052,11.26 -11.259,11.26 z M 5.562,84.104 h 73.965 c 3.437,0 6.232,-2.797 6.232,-6.234 V 32.801 H 5.562 Z"
       id="path3734"
       inkscape:connector-curvature="0"
       style="fill:#454b53" /></g></svg>
