<?xml version="1.0" encoding="UTF-8" standalone="no"?>
<svg
   enable-background="new 0 0 91 91"
   height="91px"
   id="Layer_1"
   version="1.1"
   viewBox="0 0 91 91"
   width="91px"
   xml:space="preserve"
   sodipodi:docname="task_icon.svg"
   inkscape:version="1.3.2 (091e20e, 2023-11-25)"
   xmlns:inkscape="http://www.inkscape.org/namespaces/inkscape"
   xmlns:sodipodi="http://sodipodi.sourceforge.net/DTD/sodipodi-0.dtd"
   xmlns="http://www.w3.org/2000/svg"
   xmlns:svg="http://www.w3.org/2000/svg"><defs
     id="defs8" /><sodipodi:namedview
     id="namedview8"
     pagecolor="#ffffff"
     bordercolor="#000000"
     borderopacity="0.25"
     inkscape:showpageshadow="2"
     inkscape:pageopacity="0.0"
     inkscape:pagecheckerboard="0"
     inkscape:deskcolor="#d1d1d1"
     inkscape:zoom="4.0808436"
     inkscape:cx="39.942722"
     inkscape:cy="44.108527"
     inkscape:window-width="1376"
     inkscape:window-height="767"
     inkscape:window-x="2040"
     inkscape:window-y="902"
     inkscape:window-maximized="0"
     inkscape:current-layer="Layer_1" /><path
     d="M 54.076215,19.4 V 3.438 H 9.4884315 V 88.342 H 72.315452 c 4.736962,0 8.613927,-3.613 8.613927,-8.027 V 27.428 H 62.694437 c -4.740183,0 -8.618222,-3.612 -8.618222,-8.028 z"
     fill="#fde497"
     id="path1"
     style="fill:#5fd3bc;stroke-width:1.03618" /><path
     d="M 73.610404,90.855 H 9.4843124 C 7.963241,90.855 6.7303841,89.73 6.7303841,88.341 V 3.438 c 0,-1.388 1.2328569,-2.513 2.7539283,-2.513 H 54.994812 c 1.521073,0 2.753929,1.125 2.753929,2.513 V 19.4 c 0,3.041 2.711189,5.515 6.043739,5.515 h 18.611207 c 1.522167,0 2.755024,1.125 2.755024,2.513 v 52.887 c -10e-4,5.811 -5.180191,10.54 -11.548307,10.54 z M 12.237145,85.83 h 61.373259 c 3.330357,0 6.04045,-2.475 6.04045,-5.516 V 29.94 H 63.791383 c -6.369212,0 -11.550498,-4.729 -11.550498,-10.541 V 5.951 h -40.00374 z"
     fill="#454b53"
     id="path2"
     style="stroke-width:1.04684" /><path
     d="M 65.379,47.164 H 26.021 c -1.388,0 -2.513,-1.125 -2.513,-2.513 0,-1.388 1.125,-2.513 2.513,-2.513 h 39.358 c 1.388,0 2.513,1.125 2.513,2.513 0,1.388 -1.125,2.513 -2.513,2.513 z"
     fill="#454b53"
     id="path3" /><path
     d="m 65.545849,38.026 h -39.358 c -1.388,0 -2.513,-1.125 -2.513,-2.513 0,-1.388 1.125,-2.513 2.513,-2.513 h 39.358 c 1.388,0 2.513,1.125 2.513,2.513 0,1.388 -1.125,2.513 -2.513,2.513 z"
     fill="#454b53"
     id="path3-8" /><path
     d="m 65.107865,70.894648 h -39.358 c -1.388,0 -2.513,-1.125 -2.513,-2.513 0,-1.388 1.125,-2.513 2.513,-2.513 h 39.358 c 1.388,0 2.513,1.125 2.513,2.513 0,1.388 -1.125,2.513 -2.513,2.513 z"
     fill="#454b53"
     id="path3-0" /><path
     d="M 35.931,60.971 H 26.02 c -1.388,0 -2.513,-1.125 -2.513,-2.513 0,-1.388 1.125,-2.513 2.513,-2.513 h 9.911 c 1.388,0 2.513,1.125 2.513,2.513 0,1.388 -1.125,2.513 -2.513,2.513 z"
     fill="#454b53"
     id="path4" /><path
     d="m 52.707,60.971 h -4.889 c -1.387,0 -2.512,-1.125 -2.512,-2.513 0,-1.388 1.125,-2.513 2.512,-2.513 h 4.889 c 1.389,0 2.514,1.125 2.514,2.513 0,1.388 -1.125,2.513 -2.514,2.513 z"
     fill="#454b53"
     id="path5" /><path
     d="M 78.969,27.425 53.958,3.438 V 19.4 c 0,4.418 3.61,8.025 8.026,8.025 z"
     fill="#b0e0d4"
     id="path6"
     style="fill:#d5f6ff" /><path
     d="M 82.439805,29.938 H 64.069069 C 57.783975,29.938 52.670237,25.211 52.670237,19.4 V 3.438 c 0,-1.007 0.651115,-1.916 1.651581,-2.311 1.001549,-0.396 2.161009,-0.198 2.947321,0.498 l 27.050462,23.987 c 0.800374,0.71 1.054547,1.799 0.640299,2.75 -0.413166,0.952 -1.41147,1.576 -2.520095,1.576 z M 58.106288,9.329 V 19.4 c 0,3.04 2.674761,5.512 5.963864,5.512 h 11.609741 z"
     fill="#454b53"
     id="path7"
     style="stroke-width:1.03999" /></svg>
